<mxfile host="65bd71144e">
    <diagram id="hersogEXe5EkbPs9iM37" name="Page-1">
        <mxGraphModel dx="359" dy="428" grid="1" gridSize="10" guides="1" tooltips="1" connect="1" arrows="1" fold="1" page="1" pageScale="1" pageWidth="1100" pageHeight="850" math="0" shadow="0">
            <root>
                <mxCell id="0"/>
                <mxCell id="1" parent="0"/>
                <mxCell id="2" value="" style="rounded=1;whiteSpace=wrap;html=1;fillColor=#f5f5f5;strokeColor=#666666;fontColor=#333333;" parent="1" vertex="1">
                    <mxGeometry x="315" y="205" width="90" height="30" as="geometry"/>
                </mxCell>
                <mxCell id="3" value="x&lt;sub&gt;0&lt;/sub&gt;" style="text;html=1;align=center;verticalAlign=middle;whiteSpace=wrap;rounded=1;fillColor=none;" parent="1" vertex="1">
                    <mxGeometry x="320" y="205" width="20" height="30" as="geometry"/>
                </mxCell>
                <mxCell id="4" value="x&lt;sub&gt;2&lt;/sub&gt;" style="text;html=1;align=center;verticalAlign=middle;whiteSpace=wrap;rounded=1;fillColor=none;" parent="1" vertex="1">
                    <mxGeometry x="350" y="205" width="20" height="30" as="geometry"/>
                </mxCell>
                <mxCell id="5" value="x&lt;sub&gt;3&lt;/sub&gt;" style="text;html=1;align=center;verticalAlign=middle;whiteSpace=wrap;rounded=1;fillColor=none;" parent="1" vertex="1">
                    <mxGeometry x="380" y="205" width="20" height="30" as="geometry"/>
                </mxCell>
                <mxCell id="6" value="" style="rounded=1;whiteSpace=wrap;html=1;fillColor=#f5f5f5;fontColor=#333333;strokeColor=#666666;dashed=1;" parent="1" vertex="1">
                    <mxGeometry x="290" y="250" width="30" height="30" as="geometry"/>
                </mxCell>
                <mxCell id="7" value="b&lt;sub&gt;0&lt;/sub&gt;" style="text;html=1;align=center;verticalAlign=middle;whiteSpace=wrap;rounded=1;fillColor=none;" parent="1" vertex="1">
                    <mxGeometry x="295" y="255" width="20" height="20" as="geometry"/>
                </mxCell>
                <mxCell id="8" value="" style="endArrow=none;html=1;exitX=0.75;exitY=0;exitDx=0;exitDy=0;entryX=0.5;entryY=1;entryDx=0;entryDy=0;" parent="1" source="6" target="3" edge="1">
                    <mxGeometry width="50" height="50" relative="1" as="geometry">
                        <mxPoint x="370" y="350" as="sourcePoint"/>
                        <mxPoint x="320" y="230" as="targetPoint"/>
                    </mxGeometry>
                </mxCell>
                <mxCell id="9" value="" style="rounded=1;whiteSpace=wrap;html=1;fillColor=#f5f5f5;fontColor=#333333;strokeColor=#666666;dashed=1;" parent="1" vertex="1">
                    <mxGeometry x="325" y="250" width="70" height="30" as="geometry"/>
                </mxCell>
                <mxCell id="10" value="b&lt;span style=&quot;font-size: 10px&quot;&gt;&lt;sub&gt;1&lt;/sub&gt;&lt;sup&gt;l&lt;/sup&gt;&lt;/span&gt;" style="text;html=1;align=center;verticalAlign=middle;whiteSpace=wrap;rounded=1;fillColor=none;" parent="1" vertex="1">
                    <mxGeometry x="330" y="255" width="20" height="20" as="geometry"/>
                </mxCell>
                <mxCell id="12" value="b&lt;span style=&quot;font-size: 10px&quot;&gt;&lt;sub&gt;n&lt;/sub&gt;&lt;sup&gt;l&lt;/sup&gt;&lt;/span&gt;" style="text;html=1;align=center;verticalAlign=middle;whiteSpace=wrap;rounded=1;fillColor=none;" parent="1" vertex="1">
                    <mxGeometry x="370" y="255" width="20" height="20" as="geometry"/>
                </mxCell>
                <mxCell id="13" value="" style="endArrow=none;html=1;entryX=0.5;entryY=1;entryDx=0;entryDy=0;exitX=0.5;exitY=0;exitDx=0;exitDy=0;" parent="1" source="9" target="4" edge="1">
                    <mxGeometry width="50" height="50" relative="1" as="geometry">
                        <mxPoint x="360" y="310" as="sourcePoint"/>
                        <mxPoint x="360" y="230" as="targetPoint"/>
                    </mxGeometry>
                </mxCell>
                <mxCell id="14" value="" style="rounded=1;whiteSpace=wrap;html=1;fillColor=#f5f5f5;fontColor=#333333;strokeColor=#666666;dashed=1;" parent="1" vertex="1">
                    <mxGeometry x="400" y="250" width="80" height="30" as="geometry"/>
                </mxCell>
                <mxCell id="15" value="b&lt;span style=&quot;font-size: 10px&quot;&gt;&lt;sub&gt;1&lt;/sub&gt;&lt;sup&gt;r&lt;/sup&gt;&lt;/span&gt;" style="text;html=1;align=center;verticalAlign=middle;whiteSpace=wrap;rounded=1;fillColor=none;" parent="1" vertex="1">
                    <mxGeometry x="405" y="255" width="25" height="20" as="geometry"/>
                </mxCell>
                <mxCell id="17" value="b&lt;span style=&quot;font-size: 10px&quot;&gt;&lt;sub&gt;n&lt;/sub&gt;&lt;sup&gt;r&lt;/sup&gt;&lt;/span&gt;" style="text;html=1;align=center;verticalAlign=middle;whiteSpace=wrap;rounded=1;fillColor=none;" parent="1" vertex="1">
                    <mxGeometry x="450" y="255" width="25" height="20" as="geometry"/>
                </mxCell>
                <mxCell id="18" value="" style="endArrow=none;html=1;entryX=0.5;entryY=1;entryDx=0;entryDy=0;exitX=0.25;exitY=0;exitDx=0;exitDy=0;" parent="1" source="14" target="5" edge="1">
                    <mxGeometry width="50" height="50" relative="1" as="geometry">
                        <mxPoint x="390" y="300" as="sourcePoint"/>
                        <mxPoint x="400" y="230" as="targetPoint"/>
                    </mxGeometry>
                </mxCell>
                <mxCell id="19" value="..." style="text;html=1;strokeColor=none;fillColor=none;align=center;verticalAlign=middle;whiteSpace=wrap;rounded=0;" parent="1" vertex="1">
                    <mxGeometry x="350" y="255" width="20" height="20" as="geometry"/>
                </mxCell>
                <mxCell id="20" value="..." style="text;html=1;strokeColor=none;fillColor=none;align=center;verticalAlign=middle;whiteSpace=wrap;rounded=0;" parent="1" vertex="1">
                    <mxGeometry x="430" y="255" width="20" height="20" as="geometry"/>
                </mxCell>
            </root>
        </mxGraphModel>
    </diagram>
</mxfile>